<?xml version="1.0" encoding="UTF-8" standalone="no"?>
<!-- Created with Inkscape (http://www.inkscape.org/) -->

<svg
   xmlns:dc="http://purl.org/dc/elements/1.1/"
   xmlns:cc="http://creativecommons.org/ns#"
   xmlns:rdf="http://www.w3.org/1999/02/22-rdf-syntax-ns#"
   xmlns:svg="http://www.w3.org/2000/svg"
   xmlns="http://www.w3.org/2000/svg"
   xmlns:sodipodi="http://sodipodi.sourceforge.net/DTD/sodipodi-0.dtd"
   xmlns:inkscape="http://www.inkscape.org/namespaces/inkscape"
   width="210mm"
   height="297mm"
   viewBox="0 0 210 297"
   version="1.1"
   id="svg8"
   inkscape:version="0.92.4 (5da689c313, 2019-01-14)"
   sodipodi:docname="max200.svg">
  <defs
     id="defs2" />
  <sodipodi:namedview
     id="base"
     pagecolor="#ffffff"
     bordercolor="#666666"
     borderopacity="1.0"
     inkscape:pageopacity="0.0"
     inkscape:pageshadow="2"
     inkscape:zoom="1.33"
     inkscape:cx="250.25466"
     inkscape:cy="34736.669"
     inkscape:document-units="px"
     inkscape:current-layer="layer1"
     showgrid="false"
     showborder="false"
     inkscape:snap-smooth-nodes="true"
     inkscape:window-width="1366"
     inkscape:window-height="745"
     inkscape:window-x="-8"
     inkscape:window-y="-8"
     inkscape:window-maximized="1" />
  <metadata
     id="metadata5">
    <rdf:RDF>
      <cc:Work
         rdf:about="">
        <dc:format>image/svg+xml</dc:format>
        <dc:type
           rdf:resource="http://purl.org/dc/dcmitype/StillImage" />
        <dc:title></dc:title>
      </cc:Work>
    </rdf:RDF>
  </metadata>
  <g
     inkscape:label="Layer 1"
     inkscape:groupmode="layer"
     id="layer1">
    <path
       style="color:#000000;font-style:normal;font-variant:normal;font-weight:normal;font-stretch:normal;font-size:medium;line-height:normal;font-family:sans-serif;font-variant-ligatures:normal;font-variant-position:normal;font-variant-caps:normal;font-variant-numeric:normal;font-variant-alternates:normal;font-feature-settings:normal;text-indent:0;text-align:start;text-decoration:none;text-decoration-line:none;text-decoration-style:solid;text-decoration-color:#000000;letter-spacing:normal;word-spacing:normal;text-transform:none;writing-mode:lr-tb;direction:ltr;text-orientation:mixed;dominant-baseline:auto;baseline-shift:baseline;text-anchor:start;white-space:normal;shape-padding:0;clip-rule:nonzero;display:inline;overflow:visible;visibility:visible;opacity:1;isolation:auto;mix-blend-mode:normal;color-interpolation:sRGB;color-interpolation-filters:linearRGB;solid-color:#000000;solid-opacity:1;vector-effect:none;fill:none;fill-opacity:1;fill-rule:nonzero;stroke:#000000;stroke-width:2.64583325;stroke-linecap:butt;stroke-linejoin:miter;stroke-miterlimit:4;stroke-dasharray:none;stroke-dashoffset:0;stroke-opacity:1;color-rendering:auto;image-rendering:auto;shape-rendering:auto;text-rendering:auto;enable-background:accumulate"
       d="m 56.374788,-8917.6428 c -8.276568,0.01 -16.480943,1.5174 -24.208858,4.4614 l -0.912604,0.3477 0.06253,0.9726 c 0.315378,4.9694 1.186939,9.8433 2.563669,14.546 H 78.95274 c 1.334352,-4.695 2.165876,-9.5559 2.445326,-14.5074 l 0.05478,-0.9625 -0.902272,-0.3458 c -7.71245,-2.9562 -15.90353,-4.4858 -24.1701,-4.512 h -0.0021 z m -13.792437,38.8925 c 3.63747,5.4131 8.075575,10.3259 13.227616,14.5473 l 0.850077,0.6956 0.83974,-0.7054 c 5.048419,-4.2384 9.389747,-9.1464 12.941847,-14.5375 z"
       id="path841"
       inkscape:connector-curvature="0" />
    <path
       style="color:#000000;font-style:normal;font-variant:normal;font-weight:normal;font-stretch:normal;font-size:medium;line-height:normal;font-family:sans-serif;font-variant-ligatures:normal;font-variant-position:normal;font-variant-caps:normal;font-variant-numeric:normal;font-variant-alternates:normal;font-feature-settings:normal;text-indent:0;text-align:start;text-decoration:none;text-decoration-line:none;text-decoration-style:solid;text-decoration-color:#000000;letter-spacing:normal;word-spacing:normal;text-transform:none;writing-mode:lr-tb;direction:ltr;text-orientation:mixed;dominant-baseline:auto;baseline-shift:baseline;text-anchor:start;white-space:normal;shape-padding:0;clip-rule:nonzero;display:inline;overflow:visible;visibility:visible;opacity:1;isolation:auto;mix-blend-mode:normal;color-interpolation:sRGB;color-interpolation-filters:linearRGB;solid-color:#000000;solid-opacity:1;vector-effect:none;fill:#000000;fill-opacity:1;fill-rule:nonzero;stroke:none;stroke-width:10;stroke-linecap:butt;stroke-linejoin:miter;stroke-miterlimit:4;stroke-dasharray:none;stroke-dashoffset:0;stroke-opacity:1;color-rendering:auto;image-rendering:auto;shape-rendering:auto;text-rendering:auto;enable-background:accumulate"
       d="M 213.01953 -33694.473 C 184.24035 -33694.452 155.7405 -33689.283 128.73242 -33679.473 C 129.85757 -33665.285 132.24651 -33651.336 135.77539 -33637.746 L 215.26758 -33648.811 L 215.95312 -33648.908 L 290.75977 -33638.641 C 294.0329 -33651.896 296.22138 -33665.482 297.2168 -33679.281 C 270.25268 -33689.143 241.78876 -33694.382 213.0332 -33694.473 L 213.01953 -33694.473 z M 236.51758 -33535.443 L 211.49805 -33532.008 L 191.62109 -33534.775 C 198.58305 -33527.147 206.05731 -33519.919 214.02344 -33513.152 C 222.0437 -33520.132 229.54733 -33527.584 236.51758 -33535.443 z "
       id="path822"
       transform="scale(0.26458333)" />
    <text
       xml:space="preserve"
       style="font-style:normal;font-variant:normal;font-weight:normal;font-stretch:normal;font-size:16.49518394px;line-height:1.25;font-family:Stencil;-inkscape-font-specification:'Stencil, Normal';font-variant-ligatures:normal;font-variant-caps:normal;font-variant-numeric:normal;font-feature-settings:normal;text-align:start;letter-spacing:0px;word-spacing:0px;writing-mode:lr-tb;text-anchor:start;fill:#000000;fill-opacity:1;stroke:none;stroke-width:0.65112311;opacity:1;"
       x="26.170118"
       y="-9016.1104"
       id="text845"
       transform="scale(1.0150163,0.98520586)"><tspan
         sodipodi:role="line"
         id="tspan843"
         x="26.170118"
         y="-9016.1104"
         style="font-style:normal;font-variant:normal;font-weight:normal;font-stretch:normal;font-size:16.49518394px;font-family:Stencil;-inkscape-font-specification:'Stencil, Normal';font-variant-ligatures:normal;font-variant-caps:normal;font-variant-numeric:normal;font-feature-settings:normal;text-align:start;writing-mode:lr-tb;text-anchor:start;stroke-width:0.65112311;">MAX.XX</tspan></text>
    <path
       style="opacity:1;fill:#800080;fill-opacity:1;stroke:none;stroke-width:3.23063588;stroke-miterlimit:4;stroke-dasharray:none"
       d="m 57.138506,-8901.605 31.17101,4.2795 -61.983352,0.01 z"
       id="rect853"
       inkscape:connector-curvature="0"
       sodipodi:nodetypes="cccc" />
    <path
       sodipodi:nodetypes="cccc"
       inkscape:connector-curvature="0"
       id="path856"
       d="m 55.959669,-8873.3458 31.17101,-4.2795 -61.983352,-0.01 z"
       style="opacity:1;fill:#800080;fill-opacity:1;stroke:none;stroke-width:3.23063588;stroke-miterlimit:4;stroke-dasharray:none" />
    <path
       style="opacity:1;fill:#00ffff;fill-opacity:1;stroke:none;stroke-width:12.21027756;stroke-miterlimit:4;stroke-dasharray:none"
       d="M 215.95703 -33643.861 L 99.5 -33627.648 L 333.76758 -33627.688 L 215.95703 -33643.861 z M 95.044922 -33553.268 L 211.50195 -33537.055 L 329.3125 -33553.229 L 95.044922 -33553.268 z "
       transform="scale(0.26458333)"
       id="path862" />
    <path
       sodipodi:type="star"
       style="opacity:1;fill:#00daed;fill-opacity:1;stroke:none;stroke-width:0.32938796;stroke-miterlimit:4;stroke-dasharray:none"
       id="path883"
       sodipodi:sides="5"
       sodipodi:cx="57.08375"
       sodipodi:cy="-8907.7212"
       sodipodi:r1="3.8543501"
       sodipodi:r2="1.3671211"
       sodipodi:arg1="-1.5742746"
       sodipodi:arg2="-0.94595608"
       inkscape:flatsided="false"
       inkscape:rounded="-0.055592739"
       inkscape:randomized="0"
       d="m 57.070345,-8911.576 c -0.159183,5e-4 0.942236,2.8386 0.813128,2.7455 -0.129107,-0.093 2.911535,0.056 2.861818,-0.095 -0.04972,-0.1512 -2.408532,1.7733 -2.359868,1.6218 0.04866,-0.1516 0.846235,2.7864 0.974691,2.6924 0.128456,-0.094 -2.43079,-1.7427 -2.271607,-1.7433 0.159183,-5e-4 -2.388533,1.6659 -2.259426,1.759 0.129107,0.093 0.906222,-2.8503 0.955939,-2.6991 0.04972,0.1512 -2.32243,-1.7568 -2.371094,-1.6053 -0.04866,0.1516 2.990866,-0.019 2.86241,0.075 -0.128456,0.094 0.953192,-2.7517 0.794009,-2.7511 z"
       inkscape:transform-center-x="-0.025648584"
       inkscape:transform-center-y="-0.32381486" />
    <path
       style="opacity:1;fill:#ffffff;fill-opacity:1;stroke:none;stroke-width:0.62040097;stroke-miterlimit:4;stroke-dasharray:none"
       d="M 173.16797 -33668.311 C 173.12781 -33668.31 173.13617 -33668.205 173.16992 -33668.039 C 173.20244 -33668.205 173.20809 -33668.311 173.16797 -33668.311 z M 173.16992 -33668.039 C 172.95943 -33666.966 171.46231 -33662.976 171.67188 -33663.129 C 171.88131 -33663.282 167.63273 -33663.064 166.54297 -33663.188 C 167.49964 -33662.654 170.82717 -33660.001 170.74609 -33660.248 C 170.66498 -33660.495 169.55885 -33656.38 169.10547 -33655.385 C 169.90534 -33656.128 173.46093 -33658.477 173.20117 -33658.477 C 172.94141 -33658.476 176.51542 -33656.15 177.32031 -33655.412 C 176.86039 -33656.402 175.72396 -33660.511 175.64453 -33660.264 C 175.56519 -33660.017 178.8743 -33662.692 179.82812 -33663.232 C 178.73913 -33663.102 174.48873 -33663.292 174.69922 -33663.141 C 174.90982 -33662.989 173.38818 -33666.967 173.16992 -33668.039 z M 179.82812 -33663.232 C 179.99723 -33663.253 180.10243 -33663.28 180.08984 -33663.318 C 180.07726 -33663.357 179.97614 -33663.316 179.82812 -33663.232 z M 177.32031 -33655.412 C 177.39114 -33655.26 177.44818 -33655.17 177.48047 -33655.193 C 177.5128 -33655.217 177.44444 -33655.298 177.32031 -33655.412 z M 169.10547 -33655.385 C 168.98209 -33655.27 168.91477 -33655.188 168.94727 -33655.164 C 168.9798 -33655.141 169.03543 -33655.231 169.10547 -33655.385 z M 166.54297 -33663.188 C 166.39477 -33663.27 166.29354 -33663.31 166.28125 -33663.271 C 166.26893 -33663.233 166.37377 -33663.207 166.54297 -33663.188 z M 266.16797 -33667.812 C 266.12781 -33667.812 266.13617 -33667.707 266.16992 -33667.541 C 266.20244 -33667.707 266.20809 -33667.813 266.16797 -33667.812 z M 266.16992 -33667.541 C 265.95943 -33666.468 264.46231 -33662.477 264.67188 -33662.631 C 264.88131 -33662.784 260.63272 -33662.566 259.54297 -33662.689 C 260.49964 -33662.156 263.82717 -33659.503 263.74609 -33659.75 C 263.66495 -33659.997 262.55849 -33655.877 262.10547 -33654.885 C 262.90525 -33655.628 266.46093 -33657.979 266.20117 -33657.979 C 265.94141 -33657.978 269.51542 -33655.652 270.32031 -33654.914 C 269.86004 -33655.906 268.72393 -33660.013 268.64453 -33659.766 C 268.56519 -33659.519 271.8743 -33662.194 272.82812 -33662.734 C 271.73913 -33662.604 267.48873 -33662.794 267.69922 -33662.643 C 267.90982 -33662.491 266.38818 -33666.469 266.16992 -33667.541 z M 272.82812 -33662.734 C 272.99723 -33662.755 273.10243 -33662.782 273.08984 -33662.82 C 273.07726 -33662.859 272.97614 -33662.818 272.82812 -33662.734 z M 270.32031 -33654.914 C 270.3914 -33654.761 270.4481 -33654.672 270.48047 -33654.695 C 270.5128 -33654.719 270.44444 -33654.8 270.32031 -33654.914 z M 262.10547 -33654.885 C 261.98212 -33654.77 261.91477 -33654.689 261.94727 -33654.666 C 261.97972 -33654.643 262.03571 -33654.732 262.10547 -33654.885 z M 259.54297 -33662.689 C 259.39477 -33662.772 259.29354 -33662.812 259.28125 -33662.773 C 259.26893 -33662.735 259.37377 -33662.709 259.54297 -33662.689 z "
       transform="scale(0.26458333)"
       id="path885" />
  </g>
</svg>
